<svg id="Ebene_1" data-name="Ebene 1" xmlns="http://www.w3.org/2000/svg" viewBox="0 0 203.36 249.5"><defs><style>.cls-1,.cls-2{fill:none;stroke:#1d1d1b;}.cls-1,.cls-2,.cls-3{stroke-miterlimit:10;}.cls-1{stroke-width:11px;}.cls-2,.cls-3{stroke-width:8px;}.cls-3{fill:#ffde00;stroke:#ffde00;}.cls-4{fill:#fff;}</style></defs><path class="cls-1" d="M293,190c-2.73-12.43-16-21.87-31.9-21.87a36.59,36.59,0,0,0-21.46,6.67c-6.87-10.61-20-17.79-35-17.79-19.06,0-35,11.56-39.07,27-.51,0-1,0-1.53,0-16.36,0-29.62,12.21-29.62,27.28s13.26,27.28,29.62,27.28a30.62,30.62,0,0,0,22.67-9.74c9.9,6.74,25.06,11.06,42.05,11.06,19.44,0,36.47-5.64,46-14.11a25.45,25.45,0,0,0,13.51,3.78c12.76,0,23.11-9,23.11-20C311.35,199.88,303.45,191.83,293,190Z" transform="translate(-128.91 -151.46)"/><path class="cls-2" d="M156.22,251.34c-.37,1.95-.22,66-.22,66V389a2.79,2.79,0,0,0,2.24,2.71c7,1.48,30.27,5.65,68.35,5.26,36.18-.37,60.65-4.07,68-5.34a2.8,2.8,0,0,0,2.36-2.73v-77.2s.89-66.37.08-69" transform="translate(-128.91 -151.46)"/><path class="cls-3" d="M275.11,245.34c-4.64,2.93-18.31,11.72-43.86,12.26-24.42.8-40-6.83-44-8.84a37.16,37.16,0,0,1-17.75,7.2l-.12,55.61-.24,70s19.78,3.58,55.67,3.19a516.57,516.57,0,0,0,58.58-3.7L283,307l.65-59.79A31.92,31.92,0,0,1,275.11,245.34Z" transform="translate(-128.91 -151.46)"/><rect class="cls-4" x="45.17" y="111.82" width="11.35" height="114.06" rx="5.68"/><path class="cls-2" d="M310.69,264.38l-12.81-.21L297.13,342h13.56a17.59,17.59,0,0,0,17.59-17.58V282A17.6,17.6,0,0,0,310.69,264.38Z" transform="translate(-128.91 -151.46)"/></svg>