<svg id="Ebene_1" data-name="Ebene 1" xmlns="http://www.w3.org/2000/svg" viewBox="0 0 374.91 328.31"><defs><style>.cls-1,.cls-2{fill:#008c6e;}.cls-1{opacity:0.87;}.cls-3{fill:#8c4244;}.cls-4{fill:#30ab5c;}</style></defs><path class="cls-1" d="M463.86,241.47l-22.68-27.35a6.39,6.39,0,0,0-9-.84l-71.25,59.09a60.41,60.41,0,0,0-22.45-4.13c-13.44,0-25.35,4-32.75,10.13h0l-73,59.95,2.1,2.56h11.85L240.88,351h0l3.54,5c.29.38.57.77.83,1.18l1.23,1.75a3.71,3.71,0,0,1,.23.32l7.46,10.62.13.18,2.67,3.8.12-.08L284.77,362l-20.1,21.54.05,0-.05,0,24.43.86-11.58,18.52h0l20.63,24.36,1.4-1.18,73.67-61.46c8.13-6,14.9-16.48,18-29.28a55.67,55.67,0,0,0,.35-25.63L463,250.47A6.38,6.38,0,0,0,463.86,241.47Z" transform="translate(-108.27 -196.41)"/><path class="cls-1" d="M464,241.24l-22.69-27.35a6.39,6.39,0,0,0-9-.84l-71.25,59.09A60.16,60.16,0,0,0,338.64,268c-13.45,0-25.36,4-32.75,10.13h0l-73,59.95,2.1,2.56h11.86L241,350.73h0l16.09,22.9.12-.08,27.71-11.77-20.1,21.54.05,0-.05,0,24.42.85-11.58,18.53h0l20.64,24.36,1.39-1.18,73.68-61.46c8.12-6,14.9-16.48,18-29.28a55.66,55.66,0,0,0,.34-25.63l71.5-59.29A6.4,6.4,0,0,0,464,241.24Z" transform="translate(-108.27 -196.41)"/><path class="cls-2" d="M251,428.29l5.27-21.72h0l-17-1.79,4.94-24.36h0l-.72-.21-4.68-2H212.86l9.08-19.71L209.85,367l6.21-15-40.6,32.94c-.6.44-1.2.89-1.78,1.38l-54.11,45.43a31.62,31.62,0,0,0-3.89,44.57l31.19,37.17a31.65,31.65,0,0,0,44.58,3.89l53.67-45.06,38.46-31.89Z" transform="translate(-108.27 -196.41)"/><path class="cls-2" d="M311.6,475.61l0,0h-.06l-21.37-7.14,0,0v0h0l0,0h0v0l0,0-18.91,9.24h0a32.32,32.32,0,0,0,40.4-2.1h0ZM290,468.87l.11-.39,0,0Z" transform="translate(-108.27 -196.41)"/><path class="cls-2" d="M346.17,442.3h0l-9.44-22.58h0l-9.36,18L313,436.8l-1.47-.25a36.82,36.82,0,0,0-.54,7.35,10.44,10.44,0,0,0,.72,4.2,8.54,8.54,0,0,0,2.68,3.34c2.58,1.94,5.56,1.72,8.32,1.52a26.18,26.18,0,0,0,7.73-1.93,47.21,47.21,0,0,0,6.08-2.82,95.36,95.36,0,0,0,9.65-5.9Z" transform="translate(-108.27 -196.41)"/><path class="cls-2" d="M239,497.45,231,505l.43.13,9.66,5.58,2.6,4.5-.08.1.21.13,5.07,8.78v0h0l1.66-4.84,8.28-21.25.39-.68Zm0,.05h0Zm.14.59,0,0h0Z" transform="translate(-108.27 -196.41)"/><path class="cls-3" d="M472.57,218.17" transform="translate(-108.27 -196.41)"/><path class="cls-3" d="M482.79,229.38l.1-.08-.29-.36a5,5,0,0,0-.41-.65,5,5,0,0,0-.79-.8l-24.83-30.07,0,0a2.39,2.39,0,0,0-.13-.21c-1.62-1.93-6.63-.39-11.21,3.44s-7,8.49-5.35,10.42l.08.08h0l24.47,29.64a5.16,5.16,0,0,0,.4.63,4.61,4.61,0,0,0,.76.77l.69.84.25-.21c2.85,1.45,7.39.62,11.28-2.32C482.05,237.29,484.08,232.58,482.79,229.38Z" transform="translate(-108.27 -196.41)"/><path class="cls-4" d="M316.56,310.18h0a11.38,11.38,0,0,0-16-1.66l-57.08,46.35a1.76,1.76,0,0,1,.14.23,15.31,15.31,0,0,1,2.08,2.88,16.51,16.51,0,0,1,1.21,1.66,4.68,4.68,0,0,1,.68,1.08,5.23,5.23,0,0,1,.44.71,4.55,4.55,0,0,1,1,1.37,36.71,36.71,0,0,0,.92,1.28,4.94,4.94,0,0,1,.73,1.07,4.76,4.76,0,0,1,.88,1.29c.06.08.1.16.16.24l.26.33a4.47,4.47,0,0,1,.64.86,4.16,4.16,0,0,1,.67.89,4.38,4.38,0,0,1,.54.74,5,5,0,0,1,.83,1.26c.1.14.22.28.31.43a4.58,4.58,0,0,1,.59.91,4.1,4.1,0,0,1,.5.68,4.06,4.06,0,0,1,.48.69,10,10,0,0,0,1-.71l57.36-46.57A11.38,11.38,0,0,0,316.56,310.18Z" transform="translate(-108.27 -196.41)"/><path class="cls-4" d="M242.25,379.63h-.09a.44.44,0,0,1-.41-.23l-.33-.16-.15-.06h0a.45.45,0,0,1-.37-.17l-.3-.16a.33.33,0,0,1-.15,0,.44.44,0,0,1-.41-.25c-.25-.08-.49-.15-.75-.21a1.4,1.4,0,0,1-.46-.19c-3.25.08-6.49.16-9.75.12-2.31,0-4.64.09-6.94,0l-.39,0h-.25l-3.65,0a23.63,23.63,0,0,1-3.57-.13.45.45,0,0,1-.12-.06l-80.05,63.77a11.39,11.39,0,0,0,14.2,17.82L238.39,388a11.38,11.38,0,0,0,4.25-8.18Z" transform="translate(-108.27 -196.41)"/><rect class="cls-4" x="359.29" y="245.78" width="89.75" height="10.18" rx="5.09" transform="translate(-175.71 116.72) rotate(-39.35)"/></svg>