<svg xmlns="http://www.w3.org/2000/svg" viewBox="0 0 70 34.64"><defs><style>.cls-1{fill:#e1ac22;opacity:0.8;}.cls-1,.cls-13,.cls-3,.cls-5,.cls-6,.cls-8,.cls-9{stroke:#1d1d1b;}.cls-1,.cls-13,.cls-3,.cls-4,.cls-5,.cls-6,.cls-8,.cls-9{stroke-miterlimit:10;}.cls-1,.cls-3,.cls-6,.cls-8{stroke-width:0.25px;}.cls-2{fill:#3c3c3b;}.cls-3{fill:#1d4e24;}.cls-4{fill:#de6e42;stroke:#fff;}.cls-5{fill:#634e42;}.cls-13,.cls-5,.cls-9{stroke-width:0.1px;}.cls-6{fill:#47616e;}.cls-7{fill:#1a1a1a;}.cls-8{fill:#fff;}.cls-9{fill:#335625;}.cls-10,.cls-13{fill:#1d1d1b;}.cls-11{fill:#3f2616;}.cls-12{fill:#ca9e67;}</style></defs><g id="Ebene_2" data-name="Ebene 2"><g id="Ebene_1-2" data-name="Ebene 1"><path class="cls-1" d="M1.11,21.92c.09,0,.18,0,.25,0a.46.46,0,0,0,.14-.2.57.57,0,0,1,.11-.22.31.31,0,0,1,.43,0c.08.09.09.21.18.29a.52.52,0,0,0,.41.09c.35,0,.69-.06,1-.1,1.41-.24,3.78-.48,5.2-.69s2.53-.36,3.8-.53l2.82-.38A38.61,38.61,0,0,1,23,19.78a28.07,28.07,0,0,1,6.55-4.27A4.32,4.32,0,0,1,31,15.25H67.26a1.15,1.15,0,0,1,1.2,1.1V33.29a1.16,1.16,0,0,1-1.2,1.1l-36.21.12a6.69,6.69,0,0,1-1.55-.16,18.58,18.58,0,0,1-3.38-1.75A32.87,32.87,0,0,1,23,30.1a32.52,32.52,0,0,1-5.4-.27l-15-1.61c-.06,0-.28-.07-.33,0s-.06.2-.08.3a.31.31,0,0,1-.25.22.33.33,0,0,1-.32-.13c-.08-.11-.07-.26-.14-.37s-.21-.12-.41-.13"/><line class="cls-2" x1="1.45" y1="26.94" x2="1.44" y2="27.61"/><line class="cls-2" x1="1.4" y1="22.27" x2="1.4" y2="22.98"/><line class="cls-2" x1="1.4" y1="23.32" x2="1.4" y2="23.89"/><line class="cls-2" x1="1.45" y1="24.15" x2="1.45" y2="24.78"/><line class="cls-2" x1="1.46" y1="25.06" x2="1.46" y2="25.79"/><line class="cls-2" x1="1.4" y1="26.07" x2="1.4" y2="26.68"/><line class="cls-2" x1="1.4" y1="27.97" x2="1.4" y2="28.48"/><path class="cls-3" d="M58.86,31.58H37.14A2.69,2.69,0,0,1,34.35,29V19.89a2.51,2.51,0,0,1,2.57-2.49H58.64a2.65,2.65,0,0,1,3,2.49V29A2.69,2.69,0,0,1,58.86,31.58Z"/><rect class="cls-4" x="36.24" y="18.94" width="23.78" height="11.02" rx="1.98"/><path class="cls-5" d="M61,18.9l-.48,0a8.29,8.29,0,0,0-.86,0,36,36,0,0,1-4.6-.11c-1.11-.13-2.23-.12-3.43-.33-.7-.13-1.17-.21-2-.38a9.55,9.55,0,0,1-2-.63,3.84,3.84,0,0,1-1.16-.91c-.31-.36-1.08-1.19-.83-1.58a3.77,3.77,0,0,1,1.87-.87c3.57-.62,7.29-.1,10.91-.14a3.35,3.35,0,0,1,1.48.2,2.67,2.67,0,0,1,1.22,1.44,11.33,11.33,0,0,1,.72,2.1,1.24,1.24,0,0,1,0,.85C61.67,18.81,61.27,19.07,61,18.9Z"/><path class="cls-5" d="M41.55,13.78a8.4,8.4,0,0,0-.32,3.52c.14,1.06-.18,1.62-.37,3.2-.24,2-2.5,4.94-2.34,5.16.27,0,.48-.27.72-.4-.21.3-.28.49-.25.63.24.09.56-.39.78-.53,0,.24-.29.76-.12.92a12.92,12.92,0,0,0,2.56-1.51c.89-.66,1.4-2.06,1.91-2.53a13.18,13.18,0,0,0,2.1-2c1.13-1.56,1.66-3.74,2.1-4.45"/><path class="cls-5" d="M59.13,14.52a3.25,3.25,0,0,0,.55,2.56c.32.43.94,1.13,1.23,1.57A3.18,3.18,0,0,1,61.27,21a5.14,5.14,0,0,1-1.14,3.08c-.56.72-1.28,1.73-1.2,2.22.26,0,.47-.28.73-.38-.19.43-.22.71-.07.57.32-.3.2-.33.57-.47,0,.16,0,.61.19.61s.27-.29.37-.36c.58-.44.89-.9,1.5-1a2,2,0,0,0,1.31-.75,12.11,12.11,0,0,0,1.13-1.19c1.35-1.91,1.91-3.84,2.89-5.88a12.16,12.16,0,0,0,.86-5.28,6.21,6.21,0,0,1,.31-2.1,13.48,13.48,0,0,0,0-3,3.62,3.62,0,0,0,.72,0A.5.5,0,0,0,69.83,7,.39.39,0,0,0,70,6.68a1.17,1.17,0,0,0-.09-.32,1.91,1.91,0,0,0-.21-.43c-1-1.38-2.83-2.29-4.41-3.12s-3.13-.89-4.82-1.43a18.89,18.89,0,0,0-4-1.16,31.64,31.64,0,0,0-9.06.39c-2.35.47-3.18,1.11-5.41,2.12-1.68.77-3.51,1-5.2,1.76a20.94,20.94,0,0,0-3.1,1.75,14.24,14.24,0,0,0-2,1.61,12.78,12.78,0,0,1-2,1.68,5.52,5.52,0,0,0-.94,1.22l-.93,1.42A9.29,9.29,0,0,0,27,13.31a27.83,27.83,0,0,0-1.56,4.59l2.49-1.59c.67-.35,2.25-1.41,3.83-1.2,2,.27,2.25,1.2,3.08,1.11s-.06-1.11.44-1.72-.46.16.3-.4a26,26,0,0,1,5.52,1.13"/><path class="cls-5" d="M39.25,12.66a.31.31,0,0,1-.07.09,4.08,4.08,0,0,1-1.77.83c-.53.17-1.35.18-1.6.66a3.59,3.59,0,0,0-.26,1.52.83.83,0,0,1-.6.88,3.35,3.35,0,0,1-1,.09c-.43,0-1.24,0-1.52-.32a2.32,2.32,0,0,1-.47-.74,6.63,6.63,0,0,0-.84-1.29,1,1,0,0,0-.44-.3l-1.5-.52a1.86,1.86,0,0,1-1-.58A1.63,1.63,0,0,1,28,11.87c.06-.78.17-1.57.23-2.36a1.49,1.49,0,0,1-.84-1.43,1.56,1.56,0,0,1,1.08-1.3,2.34,2.34,0,0,1,2,.42,1.48,1.48,0,0,1,.6.78c.88-.16,1.78-.25,2.66-.41a4.8,4.8,0,0,1,2.41,0c-.07-.62.54-1.18,1.19-1.35a2.85,2.85,0,0,1,2,.28,1.16,1.16,0,0,1,.66.66,1.34,1.34,0,0,1-.32,1A4.17,4.17,0,0,0,39.32,11,2.3,2.3,0,0,1,39.25,12.66Z"/><path class="cls-6" d="M1.61,21.11H1.06A.9.9,0,0,0,.13,22v6a.92.92,0,0,0,1,.88h.53V21.12S1.62,21.11,1.61,21.11Zm-.1,7.21-.61,0v-.48l.61,0Zm0-.91H.9v-.56h.61Zm0-1H.85v-.72h.66Zm0-1.18H.9v-.69h.61Zm0-1.07H.9v-.69h.61Zm0-1.06H.9V22.5h.61Zm0-1H.9v-.55h.61Z"/><rect class="cls-7" x="0.9" y="21.57" width="0.61" height="0.55"/><polygon class="cls-7" points="0.9 23.08 1.51 23.09 1.51 22.51 0.9 22.5 0.9 23.08"/><polygon class="cls-7" points="0.9 24.16 1.51 24.14 1.51 23.46 0.9 23.47 0.9 24.16"/><polygon class="cls-7" points="0.9 25.23 1.51 25.22 1.51 24.53 0.9 24.54 0.9 25.23"/><rect class="cls-7" x="0.85" y="25.68" width="0.66" height="0.73"/><rect class="cls-7" x="0.9" y="26.85" width="0.61" height="0.57"/><polygon class="cls-7" points="0.9 28.3 1.51 28.32 1.51 27.84 0.9 27.82 0.9 28.3"/><path class="cls-8" d="M12.9,29.14a2,2,0,0,1-.56-.07l.07-3.36-.07-5.13c.19,0,.37,0,.56,0l.09,5Z"/><path class="cls-8" d="M16.84,29.61c.29,0,.37.06.6,0V24.79l-.13-4.85-.63.06.16,4.8Z"/><polygon class="cls-9" points="16.78 29.57 12.99 29.2 12.99 20.55 16.7 20.1 16.78 29.57"/><ellipse class="cls-10" cx="35.22" cy="10.56" rx="0.44" ry="0.5"/><ellipse class="cls-10" cx="31.53" cy="10.56" rx="0.44" ry="0.5"/><path class="cls-11" d="M28.48,9a3,3,0,0,1,.66-.69,3.27,3.27,0,0,1,1.07-.54A1.17,1.17,0,0,0,29.07,7a1.14,1.14,0,0,0-1.19,1.1A1.1,1.1,0,0,0,28.48,9Z"/><path class="cls-11" d="M36.71,7.51a3.83,3.83,0,0,1,1,.25,3.5,3.5,0,0,1,1.09.68,1.1,1.1,0,0,0,.3-1.4,1.35,1.35,0,0,0-1.74-.53A1.2,1.2,0,0,0,36.71,7.51Z"/><path class="cls-12" d="M31.81,15.37a3.55,3.55,0,0,1-.42-1,2,2,0,0,1,.19-1.11,1.81,1.81,0,0,1,2-1.24,3,3,0,0,1,1.56.26,2.1,2.1,0,0,1,.57,2.18A6.88,6.88,0,0,0,35.48,16a.84.84,0,0,1-.22.44.93.93,0,0,1-.51.24c-.91.12-2.12.14-2.48-.45A6.29,6.29,0,0,1,31.81,15.37Z"/><path class="cls-10" d="M33.29,16.37a.76.76,0,0,1-.21,0,.69.69,0,0,1-.36-.26l.16-.07a.47.47,0,0,0,.26.19.57.57,0,0,0,.34,0,.86.86,0,0,0,.35-.3l.11-.15,0,.18c0,.09.07.21.18.24a.67.67,0,0,0,.36,0,1.08,1.08,0,0,0,.33-.2L35,16a1.14,1.14,0,0,1-.38.24.8.8,0,0,1-.48,0,.37.37,0,0,1-.24-.2.8.8,0,0,1-.33.22A.7.7,0,0,1,33.29,16.37Z"/><path class="cls-13" d="M33.38,15.43a.38.38,0,0,0-.22.07.16.16,0,0,0,0,.22.53.53,0,0,0,.24.14A.88.88,0,0,0,34,16a.56.56,0,0,0,.31-.25c.1-.14.08-.36-.16-.33A6.49,6.49,0,0,1,33.38,15.43Z"/></g></g></svg>